<svg width="42" height="42" viewBox="0 0 42 42" fill="none" xmlns="http://www.w3.org/2000/svg">
<circle cx="21" cy="21" r="21" fill="#D9D9D9"/>
<mask id="mask0_431_83" style="mask-type:alpha" maskUnits="userSpaceOnUse" x="0" y="0" width="42" height="42">
<circle cx="21" cy="21" r="21" fill="#D9D9D9"/>
</mask>
<g mask="url(#mask0_431_83)">
<path fill-rule="evenodd" clip-rule="evenodd" d="M21.0103 24.2308C25.9128 24.2256 29.8854 20.2498 29.8854 15.3462C29.8854 10.4393 25.9076 6.46154 21.0008 6.46154C16.0939 6.46154 12.1162 10.4393 12.1162 15.3462C12.1162 20.2496 16.0885 24.2253 20.9906 24.2308C14.7499 24.2359 9.69238 29.2965 9.69238 35.5385L9.69238 46.0384L32.3078 46.0385V35.5385C32.3078 29.2968 27.2507 24.2363 21.0103 24.2308ZM21.0103 24.2308C21.0069 24.2308 21.0035 24.2308 21.0001 24.2308C20.9969 24.2308 20.9938 24.2308 20.9906 24.2308C20.994 24.2308 20.9974 24.2308 21.0008 24.2308C21.004 24.2308 21.0071 24.2308 21.0103 24.2308Z" fill="white"/>
</g>
</svg>
